<svg xmlns="http://www.w3.org/2000/svg" width="256" height="256" viewBox="0 0 100 100"><rect width="100" height="100" rx="20" fill="#50a5de"></rect><path d="M22.85 26.54L22.85 68.40L45.09 68.40L45.09 73.46L16.63 73.46L16.63 26.54L22.85 26.54ZM65.97 52.55L65.97 52.55Q58.01 50.26 54.38 46.92Q50.76 43.59 50.76 38.69L50.76 38.69Q50.76 33.15 55.19 29.52Q59.62 25.89 66.71 25.89L66.71 25.89Q71.54 25.89 75.33 27.76Q79.12 29.63 81.20 32.92Q83.27 36.21 83.27 40.11L83.27 40.11L77.05 40.11Q77.05 35.85 74.35 33.42Q71.64 30.99 66.71 30.99L66.71 30.99Q62.13 30.99 59.57 33.00Q57.01 35.01 57.01 38.59L57.01 38.59Q57.01 41.46 59.44 43.44Q61.88 45.42 67.72 47.07Q73.57 48.71 76.88 50.69Q80.18 52.67 81.78 55.32Q83.37 57.96 83.37 61.54L83.37 61.54Q83.37 67.24 78.92 70.67Q74.48 74.11 67.03 74.11L67.03 74.11Q62.20 74.11 58.01 72.25Q53.82 70.40 51.55 67.18Q49.27 63.95 49.27 59.86L49.27 59.86L55.49 59.86Q55.49 64.12 58.64 66.58Q61.78 69.05 67.03 69.05L67.03 69.05Q71.93 69.05 74.54 67.05Q77.15 65.05 77.15 61.60Q77.15 58.15 74.73 56.27Q72.32 54.38 65.97 52.55Z" fill="#fdf5f5"></path></svg>