<svg width="1920" height="1080" viewBox="0 0 1920 1080" xmlns="http://www.w3.org/2000/svg"><rect width="1920" height="1080" fill="#fdf5f5"/><path d="M 0,1080 C 0,1080 0,360 0,360 C 114.17857142857144,320.75 228.3571428571429,281.5 408,268 C 587.6428571428571,254.5 832.75,266.75 1028,323 C 1223.25,379.25 1368.642857142857,479.5 1509,493 C 1649.357142857143,506.5 1784.6785714285716,433.25 1920,360 C 1920,360 1920,1080 1920,1080 Z" fill="#50a5de" opacity="0.19999999999999998"/><path d="M 0,1080 C 0,1080 0,720 0,720 C 147.92857142857144,768.6785714285714 295.8571428571429,817.3571428571429 481,774 C 666.1428571428571,730.6428571428571 888.5,595.2500000000001 1039,601 C 1189.5,606.7499999999999 1268.142857142857,753.6428571428571 1403,797 C 1537.857142857143,840.3571428571429 1728.9285714285716,780.1785714285714 1920,720 C 1920,720 1920,1080 1920,1080 Z" fill="#50a5de" opacity="0.39999999999999997"/></svg>